<svg width="154" height="54" viewBox="0 0 154 54" fill="none" xmlns="http://www.w3.org/2000/svg">
<path d="M0.5 0.5L7.20115 16.4717L17.6825 2.68248L0.5 0.5ZM154 53.5L153.485 36.1871L138.749 45.2892L154 53.5ZM10.4271 9.92562C25.5817 19.9206 38.5275 21.9512 50.2416 20.5688C61.8033 19.2044 72.2153 14.473 81.9422 11.2123C91.7751 7.91611 101.089 6.02254 111.16 9.68937C121.278 13.3734 132.454 22.7804 145.657 42.8464L148.163 41.1974C134.816 20.9128 123.192 10.8777 112.186 6.87042C101.133 2.84593 91.0003 5.01178 80.9887 8.3679C70.871 11.7596 61.0412 16.2735 49.89 17.5895C38.8912 18.8874 26.6531 17.0335 12.0788 7.42126L10.4271 9.92562Z" fill="#FFFF00"/>
</svg>
